<?xml version="1.0" standalone="no"?>
<!DOCTYPE svg PUBLIC "-//W3C//DTD SVG 20010904//EN"
 "http://www.w3.org/TR/2001/REC-SVG-20010904/DTD/svg10.dtd">
<svg version="1.0" xmlns="http://www.w3.org/2000/svg"
 width="300.000000pt" height="170.000000pt" viewBox="0 0 300.000000 170.000000"
 preserveAspectRatio="xMidYMid meet">
<metadata>
Created by potrace 1.10, written by Peter Selinger 2001-2011
</metadata>
<g transform="translate(0.000000,170.000000) scale(0.100000,-0.100000)"
fill="#000000" stroke="none">
<path d="M0 850 l0 -850 1500 0 1500 0 0 850 0 850 -1500 0 -1500 0 0 -850z
m1486 640 c16 0 19 -16 4 -25 -5 -3 -10 -15 -10 -26 0 -10 5 -19 10 -19 6 0
10 5 10 10 0 6 5 10 10 10 6 0 10 -16 10 -35 0 -19 -4 -35 -10 -35 -5 0 -10 5
-10 10 0 6 -5 10 -11 10 -7 0 -8 -14 -4 -40 5 -28 3 -46 -7 -57 -11 -15 -11
-16 5 -10 11 4 17 2 17 -7 0 -8 -7 -16 -15 -20 -8 -3 -12 -12 -9 -21 7 -18 36
-20 33 -2 -3 26 2 37 16 37 18 0 20 -16 3 -24 -9 -3 -7 -9 7 -20 16 -14 21
-14 33 -2 15 15 7 41 -9 31 -5 -4 -9 4 -9 15 0 16 5 20 15 16 9 -3 15 0 15 9
0 20 20 29 33 16 8 -8 8 -14 -1 -23 -9 -9 -7 -14 6 -24 16 -13 15 -14 -6 -20
-14 -4 -22 -13 -20 -23 4 -22 38 -27 38 -6 0 9 6 23 14 31 12 11 13 21 4 44
-14 41 -41 53 -101 47 l-51 -4 23 18 c23 19 101 24 101 7 0 -4 6 -8 13 -8 17
0 37 -35 42 -75 4 -26 -1 -40 -20 -61 -18 -19 -25 -38 -25 -65 0 -36 -2 -39
-37 -46 -49 -10 -207 -10 -255 0 -35 7 -38 11 -38 40 0 40 -20 87 -38 87 -9 0
-11 11 -8 39 5 45 25 81 43 81 7 0 13 4 13 8 0 13 61 13 93 1 42 -17 32 -27
-22 -21 -58 5 -85 -8 -99 -48 -9 -23 -8 -33 4 -44 8 -8 14 -22 14 -31 0 -21
34 -16 38 6 2 10 -6 19 -20 23 -21 6 -22 7 -6 20 12 9 14 16 7 23 -14 14 -3
33 17 33 8 0 14 -9 14 -20 0 -13 5 -18 15 -14 10 4 15 0 15 -16 0 -11 -4 -19
-9 -15 -16 10 -24 -16 -9 -31 12 -12 17 -12 33 2 14 11 16 17 8 20 -18 8 -16
24 2 24 14 0 19 -11 16 -37 -2 -16 25 -17 35 -1 4 6 0 16 -9 23 -23 16 -22 36
1 28 15 -6 15 -5 4 10 -10 11 -12 29 -7 57 4 26 3 40 -4 40 -6 0 -11 -4 -11
-10 0 -5 -4 -10 -10 -10 -5 0 -10 16 -10 35 0 19 5 35 10 35 6 0 10 -4 10 -10
0 -5 5 -10 10 -10 13 0 13 33 -1 47 -8 8 -6 16 8 30 13 13 19 15 21 6 2 -7 10
-13 18 -13z m-389 -326 c-2 -2 -59 -11 -128 -20 -68 -8 -164 -24 -214 -34 -94
-19 -125 -19 -58 -1 38 11 292 57 348 63 30 4 59 -1 52 -8z m883 1 c89 -11
313 -56 330 -66 12 -8 11 -9 -5 -5 -80 19 -378 66 -421 66 -3 0 -2 5 1 10 4 6
14 9 23 6 10 -2 42 -8 72 -11z m-1330 -224 c81 -58 59 -187 -37 -220 -35 -13
-46 -13 -79 0 -22 8 -48 29 -61 48 -79 116 63 253 177 172z m906 19 c8 0 14
-10 14 -22 0 -20 -1 -21 -13 -4 -20 27 -71 18 -75 -13 -3 -19 7 -35 43 -67 39
-37 46 -48 43 -75 -4 -44 -44 -74 -87 -64 -25 5 -31 11 -30 33 0 26 1 26 9 5
16 -40 90 -26 90 17 0 9 -20 36 -45 60 -39 39 -45 50 -43 80 2 25 10 38 28 47
14 7 31 11 38 8 8 -3 20 -5 28 -5z m651 -133 l63 -67 0 48 c0 85 -11 141 -29
145 -9 3 4 5 29 6 35 0 41 -2 28 -10 -15 -9 -18 -26 -18 -122 l-1 -112 -94 98
-95 99 0 -86 c0 -70 3 -87 17 -95 24 -13 13 -21 -15 -10 -22 8 -23 12 -21 131
l2 121 35 -39 c20 -21 64 -69 99 -107z m511 137 c14 -4 22 -14 22 -28 -1 -19
-2 -19 -11 -3 -18 31 -79 16 -79 -21 0 -7 19 -30 41 -50 23 -20 45 -47 50 -59
20 -52 -32 -101 -93 -88 -22 5 -28 12 -27 33 l0 27 11 -23 c9 -19 18 -22 47
-20 32 3 36 6 39 34 2 25 -5 37 -43 71 -29 27 -45 50 -45 66 0 26 17 52 40 60
21 7 22 7 48 1z m-2328 -26 c0 -20 -1 -20 -18 -5 -10 10 -31 17 -45 17 -26 0
-27 -2 -27 -51 l0 -52 40 6 c38 5 40 4 40 -21 -1 -23 -2 -25 -11 -9 -6 10 -22
17 -39 17 -30 0 -30 -1 -30 -55 0 -42 3 -55 15 -55 8 0 15 -4 15 -9 0 -5 -12
-6 -27 -2 l-28 7 3 106 c3 94 2 107 -15 117 -14 8 -2 10 55 11 67 0 72 -1 72
-22z m433 15 c-9 -3 -13 -31 -13 -92 0 -103 13 -131 64 -131 60 0 71 17 75
120 2 70 0 95 -10 101 -9 6 -2 8 21 8 19 0 29 -3 23 -6 -9 -3 -13 -30 -13 -86
0 -46 -6 -93 -13 -107 -30 -60 -123 -64 -157 -7 -16 25 -20 50 -20 114 0 69
-3 82 -17 86 -10 3 2 5 27 5 25 0 39 -2 33 -5z m377 -13 c25 -25 25 -46 1 -86
l-19 -30 49 -60 c27 -32 61 -64 76 -71 l28 -12 -32 -1 c-29 0 -40 9 -90 70
-41 50 -64 70 -80 70 -21 0 -23 -5 -23 -45 0 -33 4 -45 15 -45 8 0 15 -4 15
-9 0 -5 -12 -6 -26 -2 l-26 7 1 111 c2 100 0 112 -16 116 -10 3 10 5 45 6 50
1 66 -3 82 -19z m574 -82 c22 -57 48 -111 59 -120 19 -18 19 -18 -10 -18 -25
0 -30 5 -42 45 -13 43 -15 45 -52 45 -34 0 -41 -4 -50 -27 -6 -15 -8 -35 -6
-44 4 -13 -3 -18 -29 -21 -35 -4 -47 6 -16 14 12 3 30 40 57 116 22 62 42 112
45 112 3 0 23 -46 44 -102z m189 95 c-9 -3 -13 -36 -13 -114 0 -90 3 -109 15
-109 8 0 15 -5 15 -11 0 -6 -7 -8 -16 -5 -9 3 -22 6 -30 6 -11 0 -14 22 -14
114 0 82 -4 116 -12 119 -7 3 5 5 27 5 22 0 34 -2 28 -5z m600 -13 c5 -19 -8
-29 -15 -12 -1 5 -18 12 -35 15 l-33 7 0 -110 c0 -95 2 -109 18 -113 9 -3 2
-5 -15 -6 l-33 -1 0 113 0 113 -37 -4 c-21 -3 -41 -10 -45 -16 -5 -6 -8 -2 -8
12 0 21 3 22 99 22 90 0 99 -2 104 -20z m-1263 -378 c37 -28 51 -62 47 -109
-9 -85 -78 -134 -157 -113 -53 14 -82 50 -87 107 -10 112 108 180 197 115z
m292 5 c14 -22 8 -30 -10 -14 -10 10 -31 17 -45 17 l-27 0 0 -109 c0 -96 2
-110 18 -114 9 -3 2 -5 -15 -6 l-33 -1 0 115 0 115 -33 0 c-18 0 -38 -5 -45
-12 -13 -13 -15 -8 -7 14 7 17 186 12 197 -5z m198 -10 c-1 -20 -2 -20 -11 -4
-6 10 -22 17 -39 17 -29 0 -30 -2 -30 -48 l0 -48 35 4 c31 4 35 2 34 -19 0
-13 -3 -18 -6 -11 -2 6 -18 12 -34 12 -30 0 -30 0 -27 -52 3 -49 5 -53 29 -56
15 -2 34 4 44 14 16 17 17 17 13 -2 -3 -16 -13 -20 -61 -22 l-57 -3 0 116 c0
70 -4 115 -10 115 -5 0 -10 3 -10 8 0 4 29 5 65 4 59 -3 65 -6 65 -25z m144 6
c-12 -12 -14 -32 -9 -102 4 -47 8 -92 10 -98 6 -18 64 -16 71 2 9 22 23 18 17
-5 -5 -17 -14 -20 -64 -20 l-59 0 0 115 c0 96 -3 115 -15 115 -8 0 -15 3 -15
8 0 4 18 6 40 4 35 -4 38 -6 24 -19z m250 21 c9 -3 16 -16 16 -28 -1 -19 -2
-19 -11 -3 -15 25 -66 23 -74 -4 -5 -15 5 -33 44 -74 55 -58 62 -84 31 -115
-41 -41 -110 -33 -110 13 l0 21 16 -22 c21 -31 73 -27 85 6 7 19 0 32 -41 77
-28 30 -50 63 -50 73 0 42 51 72 94 56z m-1331 -11 c-8 -3 -13 -23 -13 -49 l0
-44 70 0 70 0 0 44 c0 34 -4 46 -17 49 -10 3 2 5 27 5 25 0 39 -2 33 -5 -9 -3
-13 -36 -13 -113 0 -95 2 -109 18 -113 9 -3 -3 -5 -28 -5 -25 0 -39 2 -32 5 8
3 12 26 12 64 l0 59 -70 0 -70 0 0 -59 c0 -48 3 -61 18 -65 9 -2 4 -4 -13 -3
l-30 2 -3 110 c-2 72 -7 112 -15 117 -7 4 6 7 28 7 22 0 34 -3 28 -6z m1362
-393 c-26 -11 -1377 -12 -1430 -1 -23 5 285 9 705 9 424 0 736 -3 725 -8z"/>
<path d="M1406 1185 c4 -8 10 -15 15 -15 5 0 9 7 9 15 0 8 -7 15 -15 15 -9 0
-12 -6 -9 -15z"/>
<path d="M1500 1185 c0 -8 5 -15 10 -15 6 0 10 7 10 15 0 8 -4 15 -10 15 -5 0
-10 -7 -10 -15z"/>
<path d="M1336 1174 c-16 -15 -13 -39 3 -29 9 5 22 45 16 45 -2 0 -11 -7 -19
-16z"/>
<path d="M1455 1181 c-6 -11 9 -23 19 -14 9 9 7 23 -3 23 -6 0 -12 -4 -16 -9z"/>
<path d="M1579 1168 c9 -25 31 -36 31 -16 0 7 -9 19 -20 25 -17 12 -18 11 -11
-9z"/>
<path d="M1370 1170 c0 -5 7 -10 16 -10 8 0 12 5 9 10 -3 6 -10 10 -16 10 -5
0 -9 -4 -9 -10z"/>
<path d="M1540 1170 c0 -5 5 -10 10 -10 6 0 10 5 10 10 0 6 -4 10 -10 10 -5 0
-10 -4 -10 -10z"/>
<path d="M1355 1131 l-30 -7 40 -7 c49 -8 169 -7 210 2 l30 7 -40 7 c-49 8
-169 7 -210 -2z"/>
<path d="M519 937 c-40 -30 -50 -92 -25 -152 17 -39 42 -55 88 -55 37 1 59 14
76 47 26 49 5 140 -37 163 -26 14 -82 12 -102 -3z"/>
<path d="M1110 890 c0 -59 0 -60 28 -60 36 0 52 17 52 55 0 36 -26 65 -58 65
-20 0 -22 -5 -22 -60z"/>
<path d="M1712 878 c-7 -26 -12 -48 -12 -50 0 -2 13 -3 30 -3 32 0 32 3 6 70
l-12 30 -12 -47z"/>
<path d="M1155 545 c-43 -42 -32 -136 19 -177 30 -25 80 -22 111 5 51 43 41
157 -14 187 -36 19 -90 12 -116 -15z"/>
</g>
</svg>
